<mxfile host="app.diagrams.net" modified="2023-05-23T12:40:31.055Z" agent="Mozilla/5.0 (Windows NT 10.0; Win64; x64) AppleWebKit/537.36 (KHTML, like Gecko) Chrome/113.0.0.0 Safari/537.36 Edg/113.0.1774.50" etag="kO8HWXMT5ihWishHw0aS" version="21.3.2" type="github">
  <diagram id="nxmhDV0lL2kCGaxVaUN5" name="第 1 页">
    <mxGraphModel dx="1509" dy="804" grid="0" gridSize="10" guides="1" tooltips="1" connect="1" arrows="1" fold="1" page="1" pageScale="1" pageWidth="3300" pageHeight="4681" math="0" shadow="0">
      <root>
        <mxCell id="0" />
        <mxCell id="1" parent="0" />
        <mxCell id="YHhQLFPRB-d8omWdfDBI-1" value="打包器" style="shape=umlActor;verticalLabelPosition=bottom;verticalAlign=top;html=1;outlineConnect=0;" parent="1" vertex="1">
          <mxGeometry x="260" y="330" width="30" height="60" as="geometry" />
        </mxCell>
        <mxCell id="YHhQLFPRB-d8omWdfDBI-2" value="加载器" style="shape=umlActor;verticalLabelPosition=bottom;verticalAlign=top;html=1;outlineConnect=0;" parent="1" vertex="1">
          <mxGeometry x="80" y="793" width="30" height="60" as="geometry" />
        </mxCell>
        <mxCell id="YHhQLFPRB-d8omWdfDBI-3" value="测试系统" style="shape=umlActor;verticalLabelPosition=bottom;verticalAlign=top;html=1;outlineConnect=0;" parent="1" vertex="1">
          <mxGeometry x="1210" y="170" width="30" height="60" as="geometry" />
        </mxCell>
        <mxCell id="YHhQLFPRB-d8omWdfDBI-4" value="收集打包文件清单" style="ellipse;whiteSpace=wrap;html=1;" parent="1" vertex="1">
          <mxGeometry x="410" y="110" width="140" height="70" as="geometry" />
        </mxCell>
        <mxCell id="YHhQLFPRB-d8omWdfDBI-5" value="加载资源" style="ellipse;whiteSpace=wrap;html=1;" parent="1" vertex="1">
          <mxGeometry x="260" y="893" width="140" height="70" as="geometry" />
        </mxCell>
        <mxCell id="YHhQLFPRB-d8omWdfDBI-6" value="测试时间性能" style="ellipse;whiteSpace=wrap;html=1;" parent="1" vertex="1">
          <mxGeometry x="900" y="70" width="140" height="70" as="geometry" />
        </mxCell>
        <mxCell id="YHhQLFPRB-d8omWdfDBI-7" value="" style="endArrow=open;endFill=1;endSize=12;html=1;rounded=0;entryX=0;entryY=0.5;entryDx=0;entryDy=0;" parent="1" source="YHhQLFPRB-d8omWdfDBI-1" target="YHhQLFPRB-d8omWdfDBI-4" edge="1">
          <mxGeometry width="160" relative="1" as="geometry">
            <mxPoint x="540" y="460" as="sourcePoint" />
            <mxPoint x="700" y="460" as="targetPoint" />
          </mxGeometry>
        </mxCell>
        <mxCell id="YHhQLFPRB-d8omWdfDBI-8" value="" style="endArrow=open;endFill=1;endSize=12;html=1;rounded=0;entryX=1;entryY=0.5;entryDx=0;entryDy=0;" parent="1" source="YHhQLFPRB-d8omWdfDBI-3" target="YHhQLFPRB-d8omWdfDBI-6" edge="1">
          <mxGeometry width="160" relative="1" as="geometry">
            <mxPoint x="1010" y="140" as="sourcePoint" />
            <mxPoint x="780" y="60" as="targetPoint" />
          </mxGeometry>
        </mxCell>
        <mxCell id="YHhQLFPRB-d8omWdfDBI-9" value="" style="endArrow=open;endFill=1;endSize=12;html=1;rounded=0;entryX=0;entryY=0.5;entryDx=0;entryDy=0;" parent="1" source="YHhQLFPRB-d8omWdfDBI-2" target="YHhQLFPRB-d8omWdfDBI-25" edge="1">
          <mxGeometry width="160" relative="1" as="geometry">
            <mxPoint x="390" y="703" as="sourcePoint" />
            <mxPoint x="550" y="703" as="targetPoint" />
          </mxGeometry>
        </mxCell>
        <mxCell id="YHhQLFPRB-d8omWdfDBI-11" value="预处理资源" style="ellipse;whiteSpace=wrap;html=1;" parent="1" vertex="1">
          <mxGeometry x="430" y="325" width="140" height="70" as="geometry" />
        </mxCell>
        <mxCell id="YHhQLFPRB-d8omWdfDBI-12" value="打包资源" style="ellipse;whiteSpace=wrap;html=1;" parent="1" vertex="1">
          <mxGeometry x="430" y="480" width="140" height="70" as="geometry" />
        </mxCell>
        <mxCell id="YHhQLFPRB-d8omWdfDBI-14" value="" style="endArrow=open;endFill=1;endSize=12;html=1;rounded=0;entryX=0;entryY=0.5;entryDx=0;entryDy=0;exitX=1;exitY=0.3333333333333333;exitDx=0;exitDy=0;exitPerimeter=0;" parent="1" source="YHhQLFPRB-d8omWdfDBI-1" target="YHhQLFPRB-d8omWdfDBI-11" edge="1">
          <mxGeometry width="160" relative="1" as="geometry">
            <mxPoint x="300" y="360.8064516129032" as="sourcePoint" />
            <mxPoint x="440" y="275" as="targetPoint" />
          </mxGeometry>
        </mxCell>
        <mxCell id="YHhQLFPRB-d8omWdfDBI-15" value="" style="endArrow=open;endFill=1;endSize=12;html=1;rounded=0;entryX=0;entryY=0.5;entryDx=0;entryDy=0;exitX=1;exitY=0.3333333333333333;exitDx=0;exitDy=0;exitPerimeter=0;" parent="1" source="YHhQLFPRB-d8omWdfDBI-1" target="YHhQLFPRB-d8omWdfDBI-12" edge="1">
          <mxGeometry width="160" relative="1" as="geometry">
            <mxPoint x="300" y="360" as="sourcePoint" />
            <mxPoint x="440" y="370" as="targetPoint" />
          </mxGeometry>
        </mxCell>
        <mxCell id="YHhQLFPRB-d8omWdfDBI-16" value="烘焙资源" style="ellipse;whiteSpace=wrap;html=1;" parent="1" vertex="1">
          <mxGeometry x="660" y="210" width="140" height="70" as="geometry" />
        </mxCell>
        <mxCell id="YHhQLFPRB-d8omWdfDBI-17" value="压缩资源" style="ellipse;whiteSpace=wrap;html=1;" parent="1" vertex="1">
          <mxGeometry x="660" y="380" width="140" height="70" as="geometry" />
        </mxCell>
        <mxCell id="YHhQLFPRB-d8omWdfDBI-18" value="预演资源" style="ellipse;whiteSpace=wrap;html=1;" parent="1" vertex="1">
          <mxGeometry x="660" y="295" width="140" height="70" as="geometry" />
        </mxCell>
        <mxCell id="YHhQLFPRB-d8omWdfDBI-20" value="Include" style="endArrow=open;endSize=12;dashed=1;html=1;rounded=0;exitX=1;exitY=0.5;exitDx=0;exitDy=0;entryX=0;entryY=0.5;entryDx=0;entryDy=0;" parent="1" source="YHhQLFPRB-d8omWdfDBI-11" target="YHhQLFPRB-d8omWdfDBI-16" edge="1">
          <mxGeometry width="160" relative="1" as="geometry">
            <mxPoint x="540" y="460" as="sourcePoint" />
            <mxPoint x="700" y="460" as="targetPoint" />
          </mxGeometry>
        </mxCell>
        <mxCell id="YHhQLFPRB-d8omWdfDBI-21" value="Include" style="endArrow=open;endSize=12;dashed=1;html=1;rounded=0;exitX=1;exitY=0.5;exitDx=0;exitDy=0;entryX=0;entryY=0.5;entryDx=0;entryDy=0;" parent="1" source="YHhQLFPRB-d8omWdfDBI-11" target="YHhQLFPRB-d8omWdfDBI-17" edge="1">
          <mxGeometry width="160" relative="1" as="geometry">
            <mxPoint x="580" y="370" as="sourcePoint" />
            <mxPoint x="650" y="225" as="targetPoint" />
          </mxGeometry>
        </mxCell>
        <mxCell id="YHhQLFPRB-d8omWdfDBI-22" value="Include" style="endArrow=open;endSize=12;dashed=1;html=1;rounded=0;exitX=1;exitY=0.5;exitDx=0;exitDy=0;entryX=0;entryY=0.5;entryDx=0;entryDy=0;" parent="1" source="YHhQLFPRB-d8omWdfDBI-11" target="YHhQLFPRB-d8omWdfDBI-18" edge="1">
          <mxGeometry width="160" relative="1" as="geometry">
            <mxPoint x="580" y="370" as="sourcePoint" />
            <mxPoint x="650" y="325" as="targetPoint" />
          </mxGeometry>
        </mxCell>
        <mxCell id="YHhQLFPRB-d8omWdfDBI-24" value="卸载资源" style="ellipse;whiteSpace=wrap;html=1;" parent="1" vertex="1">
          <mxGeometry x="260" y="1000" width="140" height="70" as="geometry" />
        </mxCell>
        <mxCell id="YHhQLFPRB-d8omWdfDBI-25" value="预加载资源" style="ellipse;whiteSpace=wrap;html=1;" parent="1" vertex="1">
          <mxGeometry x="260" y="780" width="140" height="70" as="geometry" />
        </mxCell>
        <mxCell id="YHhQLFPRB-d8omWdfDBI-26" value="" style="endArrow=open;endFill=1;endSize=12;html=1;rounded=0;entryX=0;entryY=0.5;entryDx=0;entryDy=0;" parent="1" target="YHhQLFPRB-d8omWdfDBI-24" edge="1">
          <mxGeometry width="160" relative="1" as="geometry">
            <mxPoint x="110" y="823" as="sourcePoint" />
            <mxPoint x="271.99357628517964" y="826.2934663066853" as="targetPoint" />
          </mxGeometry>
        </mxCell>
        <mxCell id="YHhQLFPRB-d8omWdfDBI-27" value="" style="endArrow=open;endFill=1;endSize=12;html=1;rounded=0;entryX=0;entryY=0.5;entryDx=0;entryDy=0;" parent="1" target="YHhQLFPRB-d8omWdfDBI-5" edge="1">
          <mxGeometry width="160" relative="1" as="geometry">
            <mxPoint x="110" y="823" as="sourcePoint" />
            <mxPoint x="260" y="993" as="targetPoint" />
          </mxGeometry>
        </mxCell>
        <mxCell id="YHhQLFPRB-d8omWdfDBI-28" value="监控资源利用率" style="ellipse;whiteSpace=wrap;html=1;" parent="1" vertex="1">
          <mxGeometry x="900" y="170" width="140" height="70" as="geometry" />
        </mxCell>
        <mxCell id="YHhQLFPRB-d8omWdfDBI-29" value="" style="endArrow=open;endFill=1;endSize=12;html=1;rounded=0;entryX=1;entryY=0.5;entryDx=0;entryDy=0;" parent="1" source="YHhQLFPRB-d8omWdfDBI-3" target="YHhQLFPRB-d8omWdfDBI-28" edge="1">
          <mxGeometry width="160" relative="1" as="geometry">
            <mxPoint x="1010" y="140" as="sourcePoint" />
            <mxPoint x="780" y="60" as="targetPoint" />
          </mxGeometry>
        </mxCell>
        <mxCell id="YHhQLFPRB-d8omWdfDBI-30" value="" style="endArrow=open;endFill=1;endSize=12;html=1;rounded=0;entryX=1;entryY=0.5;entryDx=0;entryDy=0;" parent="1" source="YHhQLFPRB-d8omWdfDBI-3" target="YHhQLFPRB-d8omWdfDBI-31" edge="1">
          <mxGeometry width="160" relative="1" as="geometry">
            <mxPoint x="1160" y="127" as="sourcePoint" />
            <mxPoint x="1030" y="290" as="targetPoint" />
          </mxGeometry>
        </mxCell>
        <mxCell id="YHhQLFPRB-d8omWdfDBI-31" value="监控缓存性能" style="ellipse;whiteSpace=wrap;html=1;" parent="1" vertex="1">
          <mxGeometry x="900" y="270" width="140" height="70" as="geometry" />
        </mxCell>
        <mxCell id="MK2Ia5hPxLcxK8BkZ3UK-3" value="包含" style="endArrow=open;html=1;rounded=0;dashed=1;endFill=0;" parent="1" edge="1">
          <mxGeometry width="50" height="50" relative="1" as="geometry">
            <mxPoint x="400" y="813" as="sourcePoint" />
            <mxPoint x="490" y="813" as="targetPoint" />
            <mxPoint as="offset" />
          </mxGeometry>
        </mxCell>
        <mxCell id="MK2Ia5hPxLcxK8BkZ3UK-4" value="加载Header" style="ellipse;whiteSpace=wrap;html=1;" parent="1" vertex="1">
          <mxGeometry x="490" y="780" width="140" height="70" as="geometry" />
        </mxCell>
        <mxCell id="MK2Ia5hPxLcxK8BkZ3UK-5" value="包含" style="endArrow=open;html=1;rounded=0;dashed=1;endFill=0;exitX=1;exitY=0.5;exitDx=0;exitDy=0;entryX=0;entryY=1;entryDx=0;entryDy=0;" parent="1" source="YHhQLFPRB-d8omWdfDBI-5" target="MK2Ia5hPxLcxK8BkZ3UK-4" edge="1">
          <mxGeometry width="50" height="50" relative="1" as="geometry">
            <mxPoint x="410" y="823" as="sourcePoint" />
            <mxPoint x="500" y="823" as="targetPoint" />
          </mxGeometry>
        </mxCell>
        <mxCell id="MK2Ia5hPxLcxK8BkZ3UK-6" value="加载Export" style="ellipse;whiteSpace=wrap;html=1;" parent="1" vertex="1">
          <mxGeometry x="490" y="933" width="140" height="70" as="geometry" />
        </mxCell>
        <mxCell id="MK2Ia5hPxLcxK8BkZ3UK-7" value="包含" style="endArrow=open;html=1;rounded=0;dashed=1;endFill=0;exitX=1;exitY=0.5;exitDx=0;exitDy=0;entryX=0;entryY=0.5;entryDx=0;entryDy=0;" parent="1" source="YHhQLFPRB-d8omWdfDBI-5" target="MK2Ia5hPxLcxK8BkZ3UK-6" edge="1">
          <mxGeometry width="50" height="50" relative="1" as="geometry">
            <mxPoint x="410" y="978" as="sourcePoint" />
            <mxPoint x="521" y="850" as="targetPoint" />
          </mxGeometry>
        </mxCell>
        <mxCell id="MK2Ia5hPxLcxK8BkZ3UK-8" value="包含" style="endArrow=open;html=1;rounded=0;dashed=1;endFill=0;exitX=1;exitY=0.5;exitDx=0;exitDy=0;entryX=0;entryY=0.5;entryDx=0;entryDy=0;" parent="1" source="YHhQLFPRB-d8omWdfDBI-25" target="MK2Ia5hPxLcxK8BkZ3UK-9" edge="1">
          <mxGeometry width="50" height="50" relative="1" as="geometry">
            <mxPoint x="430" y="720" as="sourcePoint" />
            <mxPoint x="510" y="710" as="targetPoint" />
            <mxPoint as="offset" />
          </mxGeometry>
        </mxCell>
        <mxCell id="MK2Ia5hPxLcxK8BkZ3UK-9" value="维护引用计数与依赖关系" style="ellipse;whiteSpace=wrap;html=1;" parent="1" vertex="1">
          <mxGeometry x="490" y="680" width="140" height="70" as="geometry" />
        </mxCell>
        <mxCell id="MK2Ia5hPxLcxK8BkZ3UK-10" value="取消预加载" style="ellipse;whiteSpace=wrap;html=1;" parent="1" vertex="1">
          <mxGeometry x="260" y="680" width="140" height="70" as="geometry" />
        </mxCell>
        <mxCell id="MK2Ia5hPxLcxK8BkZ3UK-11" value="包含" style="endArrow=open;html=1;rounded=0;dashed=1;endFill=0;exitX=1;exitY=0.5;exitDx=0;exitDy=0;entryX=0;entryY=0.5;entryDx=0;entryDy=0;" parent="1" source="MK2Ia5hPxLcxK8BkZ3UK-10" target="MK2Ia5hPxLcxK8BkZ3UK-9" edge="1">
          <mxGeometry width="50" height="50" relative="1" as="geometry">
            <mxPoint x="410" y="825" as="sourcePoint" />
            <mxPoint x="500" y="725" as="targetPoint" />
            <mxPoint as="offset" />
          </mxGeometry>
        </mxCell>
        <mxCell id="MK2Ia5hPxLcxK8BkZ3UK-12" value="" style="endArrow=open;endFill=1;endSize=12;html=1;rounded=0;entryX=0;entryY=0.5;entryDx=0;entryDy=0;" parent="1" target="MK2Ia5hPxLcxK8BkZ3UK-10" edge="1">
          <mxGeometry width="160" relative="1" as="geometry">
            <mxPoint x="110" y="820" as="sourcePoint" />
            <mxPoint x="270" y="825" as="targetPoint" />
          </mxGeometry>
        </mxCell>
        <mxCell id="MK2Ia5hPxLcxK8BkZ3UK-13" value="Include" style="endArrow=open;endSize=12;dashed=1;html=1;rounded=0;exitX=1;exitY=0.5;exitDx=0;exitDy=0;entryX=0;entryY=0.5;entryDx=0;entryDy=0;" parent="1" source="YHhQLFPRB-d8omWdfDBI-4" target="MK2Ia5hPxLcxK8BkZ3UK-14" edge="1">
          <mxGeometry width="160" relative="1" as="geometry">
            <mxPoint x="590" y="215" as="sourcePoint" />
            <mxPoint x="670" y="110" as="targetPoint" />
          </mxGeometry>
        </mxCell>
        <mxCell id="MK2Ia5hPxLcxK8BkZ3UK-14" value="解析依赖关系" style="ellipse;whiteSpace=wrap;html=1;" parent="1" vertex="1">
          <mxGeometry x="660" y="40" width="140" height="70" as="geometry" />
        </mxCell>
        <mxCell id="MK2Ia5hPxLcxK8BkZ3UK-15" value="生成资源清单" style="ellipse;whiteSpace=wrap;html=1;" parent="1" vertex="1">
          <mxGeometry x="660" y="130" width="140" height="70" as="geometry" />
        </mxCell>
        <mxCell id="MK2Ia5hPxLcxK8BkZ3UK-16" value="Include" style="endArrow=open;endSize=12;dashed=1;html=1;rounded=0;exitX=1;exitY=0.5;exitDx=0;exitDy=0;entryX=0;entryY=0.5;entryDx=0;entryDy=0;" parent="1" source="YHhQLFPRB-d8omWdfDBI-4" target="MK2Ia5hPxLcxK8BkZ3UK-15" edge="1">
          <mxGeometry width="160" relative="1" as="geometry">
            <mxPoint x="560" y="155" as="sourcePoint" />
            <mxPoint x="670" y="115" as="targetPoint" />
            <mxPoint as="offset" />
          </mxGeometry>
        </mxCell>
        <mxCell id="MK2Ia5hPxLcxK8BkZ3UK-21" value="规划打包顺序" style="ellipse;whiteSpace=wrap;html=1;" parent="1" vertex="1">
          <mxGeometry x="670" y="480" width="140" height="70" as="geometry" />
        </mxCell>
        <mxCell id="MK2Ia5hPxLcxK8BkZ3UK-22" value="Include" style="endArrow=open;endSize=12;dashed=1;html=1;rounded=0;exitX=1;exitY=0.5;exitDx=0;exitDy=0;entryX=0;entryY=0.5;entryDx=0;entryDy=0;" parent="1" source="YHhQLFPRB-d8omWdfDBI-12" target="MK2Ia5hPxLcxK8BkZ3UK-21" edge="1">
          <mxGeometry width="160" relative="1" as="geometry">
            <mxPoint x="600" y="500" as="sourcePoint" />
            <mxPoint x="680" y="365" as="targetPoint" />
          </mxGeometry>
        </mxCell>
        <mxCell id="MK2Ia5hPxLcxK8BkZ3UK-25" value="调整打包资源" style="ellipse;whiteSpace=wrap;html=1;" parent="1" vertex="1">
          <mxGeometry x="670" y="570" width="140" height="70" as="geometry" />
        </mxCell>
        <mxCell id="MK2Ia5hPxLcxK8BkZ3UK-26" value="extend" style="endArrow=open;endSize=12;dashed=1;html=1;rounded=0;exitX=1;exitY=0.5;exitDx=0;exitDy=0;entryX=0;entryY=0.5;entryDx=0;entryDy=0;" parent="1" source="YHhQLFPRB-d8omWdfDBI-12" target="MK2Ia5hPxLcxK8BkZ3UK-25" edge="1">
          <mxGeometry width="160" relative="1" as="geometry">
            <mxPoint x="580" y="550" as="sourcePoint" />
            <mxPoint x="660" y="415" as="targetPoint" />
          </mxGeometry>
        </mxCell>
        <mxCell id="poz9PI-lkl7GwEYPIu7D-9" value="加载/预加载请求" style="rounded=0;orthogonalLoop=1;jettySize=auto;html=1;exitX=0;exitY=0;exitDx=70;exitDy=80;exitPerimeter=0;entryX=0;entryY=0.5;entryDx=0;entryDy=0;" parent="1" source="MK2Ia5hPxLcxK8BkZ3UK-27" target="MK2Ia5hPxLcxK8BkZ3UK-31" edge="1">
          <mxGeometry relative="1" as="geometry" />
        </mxCell>
        <mxCell id="MK2Ia5hPxLcxK8BkZ3UK-27" value="应用层" style="shape=cube;whiteSpace=wrap;html=1;boundedLbl=1;backgroundOutline=1;darkOpacity=0.05;darkOpacity2=0.1;" parent="1" vertex="1">
          <mxGeometry x="1695" y="215" width="120" height="80" as="geometry" />
        </mxCell>
        <mxCell id="poz9PI-lkl7GwEYPIu7D-10" value="加载/预加载请求" style="rounded=0;orthogonalLoop=1;jettySize=auto;html=1;exitX=1;exitY=0;exitDx=0;exitDy=0;entryX=0.5;entryY=1;entryDx=0;entryDy=0;" parent="1" source="MK2Ia5hPxLcxK8BkZ3UK-31" target="MK2Ia5hPxLcxK8BkZ3UK-36" edge="1">
          <mxGeometry x="-0.3355" y="-7" relative="1" as="geometry">
            <mxPoint as="offset" />
          </mxGeometry>
        </mxCell>
        <mxCell id="MK2Ia5hPxLcxK8BkZ3UK-31" value="有效性检查" style="ellipse;whiteSpace=wrap;html=1;" parent="1" vertex="1">
          <mxGeometry x="1842" y="350" width="120" height="80" as="geometry" />
        </mxCell>
        <mxCell id="MK2Ia5hPxLcxK8BkZ3UK-38" value="加载完成信息" style="rounded=0;orthogonalLoop=1;jettySize=auto;html=1;exitX=0;exitY=0.5;exitDx=0;exitDy=0;entryX=0;entryY=0;entryDx=120;entryDy=50;entryPerimeter=0;" parent="1" source="MK2Ia5hPxLcxK8BkZ3UK-36" target="MK2Ia5hPxLcxK8BkZ3UK-27" edge="1">
          <mxGeometry relative="1" as="geometry" />
        </mxCell>
        <mxCell id="MK2Ia5hPxLcxK8BkZ3UK-47" value="加载/预加载请求" style="rounded=0;orthogonalLoop=1;jettySize=auto;html=1;exitX=1;exitY=1;exitDx=0;exitDy=0;" parent="1" source="MK2Ia5hPxLcxK8BkZ3UK-36" target="MK2Ia5hPxLcxK8BkZ3UK-46" edge="1">
          <mxGeometry relative="1" as="geometry" />
        </mxCell>
        <mxCell id="MK2Ia5hPxLcxK8BkZ3UK-36" value="回调处理" style="ellipse;whiteSpace=wrap;html=1;" parent="1" vertex="1">
          <mxGeometry x="1935" y="226" width="120" height="80" as="geometry" />
        </mxCell>
        <mxCell id="MK2Ia5hPxLcxK8BkZ3UK-48" style="rounded=0;orthogonalLoop=1;jettySize=auto;html=1;exitX=0;exitY=1;exitDx=0;exitDy=0;entryX=1;entryY=0;entryDx=0;entryDy=0;" parent="1" source="MK2Ia5hPxLcxK8BkZ3UK-41" target="MK2Ia5hPxLcxK8BkZ3UK-36" edge="1">
          <mxGeometry relative="1" as="geometry" />
        </mxCell>
        <mxCell id="MK2Ia5hPxLcxK8BkZ3UK-49" value="Package数据" style="edgeLabel;html=1;align=center;verticalAlign=middle;resizable=0;points=[];" parent="MK2Ia5hPxLcxK8BkZ3UK-48" vertex="1" connectable="0">
          <mxGeometry x="-0.2192" y="3" relative="1" as="geometry">
            <mxPoint as="offset" />
          </mxGeometry>
        </mxCell>
        <mxCell id="poz9PI-lkl7GwEYPIu7D-12" value="前置Pakcage加载/预加载请求" style="rounded=0;orthogonalLoop=1;jettySize=auto;html=1;exitX=0.5;exitY=1;exitDx=0;exitDy=0;entryX=0.75;entryY=0;entryDx=0;entryDy=0;" parent="1" source="MK2Ia5hPxLcxK8BkZ3UK-41" target="MK2Ia5hPxLcxK8BkZ3UK-46" edge="1">
          <mxGeometry relative="1" as="geometry" />
        </mxCell>
        <mxCell id="poz9PI-lkl7GwEYPIu7D-18" style="rounded=0;orthogonalLoop=1;jettySize=auto;html=1;exitX=1;exitY=0;exitDx=0;exitDy=0;entryX=0;entryY=0.5;entryDx=0;entryDy=0;startArrow=classic;startFill=1;" parent="1" source="MK2Ia5hPxLcxK8BkZ3UK-41" target="poz9PI-lkl7GwEYPIu7D-17" edge="1">
          <mxGeometry relative="1" as="geometry" />
        </mxCell>
        <mxCell id="MK2Ia5hPxLcxK8BkZ3UK-41" value="加载线程加载Pacakge" style="ellipse;whiteSpace=wrap;html=1;" parent="1" vertex="1">
          <mxGeometry x="2060" y="100" width="120" height="80" as="geometry" />
        </mxCell>
        <mxCell id="MK2Ia5hPxLcxK8BkZ3UK-54" style="rounded=0;orthogonalLoop=1;jettySize=auto;html=1;exitX=0.5;exitY=1;exitDx=0;exitDy=0;entryX=0;entryY=0;entryDx=0;entryDy=0;" parent="1" source="MK2Ia5hPxLcxK8BkZ3UK-46" target="MK2Ia5hPxLcxK8BkZ3UK-53" edge="1">
          <mxGeometry relative="1" as="geometry" />
        </mxCell>
        <mxCell id="MK2Ia5hPxLcxK8BkZ3UK-46" value="待处理请求队列" style="shape=partialRectangle;whiteSpace=wrap;html=1;left=0;right=0;fillColor=none;" parent="1" vertex="1">
          <mxGeometry x="2035" y="370" width="120" height="60" as="geometry" />
        </mxCell>
        <mxCell id="MK2Ia5hPxLcxK8BkZ3UK-56" value="加载请求" style="rounded=0;orthogonalLoop=1;jettySize=auto;html=1;exitX=0.5;exitY=0;exitDx=0;exitDy=0;" parent="1" source="MK2Ia5hPxLcxK8BkZ3UK-53" target="MK2Ia5hPxLcxK8BkZ3UK-55" edge="1">
          <mxGeometry relative="1" as="geometry" />
        </mxCell>
        <mxCell id="poz9PI-lkl7GwEYPIu7D-11" value="预加载请求" style="rounded=0;orthogonalLoop=1;jettySize=auto;html=1;exitX=1;exitY=0.5;exitDx=0;exitDy=0;entryX=0;entryY=1;entryDx=0;entryDy=0;" parent="1" source="MK2Ia5hPxLcxK8BkZ3UK-53" target="MK2Ia5hPxLcxK8BkZ3UK-67" edge="1">
          <mxGeometry relative="1" as="geometry" />
        </mxCell>
        <mxCell id="MK2Ia5hPxLcxK8BkZ3UK-53" value="加载线程处理加载请求" style="ellipse;whiteSpace=wrap;html=1;" parent="1" vertex="1">
          <mxGeometry x="2142" y="483" width="120" height="80" as="geometry" />
        </mxCell>
        <mxCell id="MK2Ia5hPxLcxK8BkZ3UK-61" value="处理中Package&lt;br&gt;Package请求" style="rounded=0;orthogonalLoop=1;jettySize=auto;html=1;exitX=1;exitY=0;exitDx=0;exitDy=0;" parent="1" source="MK2Ia5hPxLcxK8BkZ3UK-55" target="MK2Ia5hPxLcxK8BkZ3UK-60" edge="1">
          <mxGeometry relative="1" as="geometry" />
        </mxCell>
        <mxCell id="MK2Ia5hPxLcxK8BkZ3UK-64" value="Package请求" style="rounded=0;orthogonalLoop=1;jettySize=auto;html=1;exitX=1;exitY=0;exitDx=0;exitDy=0;entryX=0.5;entryY=1;entryDx=0;entryDy=0;" parent="1" source="MK2Ia5hPxLcxK8BkZ3UK-67" target="MK2Ia5hPxLcxK8BkZ3UK-63" edge="1">
          <mxGeometry relative="1" as="geometry" />
        </mxCell>
        <mxCell id="MK2Ia5hPxLcxK8BkZ3UK-68" value="Package请求" style="rounded=0;orthogonalLoop=1;jettySize=auto;html=1;exitX=1;exitY=0.5;exitDx=0;exitDy=0;" parent="1" source="MK2Ia5hPxLcxK8BkZ3UK-55" target="MK2Ia5hPxLcxK8BkZ3UK-67" edge="1">
          <mxGeometry relative="1" as="geometry" />
        </mxCell>
        <mxCell id="MK2Ia5hPxLcxK8BkZ3UK-55" value="查询内存" style="ellipse;whiteSpace=wrap;html=1;" parent="1" vertex="1">
          <mxGeometry x="2200" y="360" width="120" height="80" as="geometry" />
        </mxCell>
        <mxCell id="MK2Ia5hPxLcxK8BkZ3UK-59" style="rounded=0;orthogonalLoop=1;jettySize=auto;html=1;exitX=0.25;exitY=1;exitDx=0;exitDy=0;" parent="1" source="MK2Ia5hPxLcxK8BkZ3UK-57" target="MK2Ia5hPxLcxK8BkZ3UK-55" edge="1">
          <mxGeometry relative="1" as="geometry" />
        </mxCell>
        <mxCell id="MK2Ia5hPxLcxK8BkZ3UK-74" style="edgeStyle=orthogonalEdgeStyle;rounded=0;orthogonalLoop=1;jettySize=auto;html=1;exitX=0;exitY=0.5;exitDx=0;exitDy=0;entryX=1;entryY=0.5;entryDx=0;entryDy=0;" parent="1" source="MK2Ia5hPxLcxK8BkZ3UK-57" target="MK2Ia5hPxLcxK8BkZ3UK-41" edge="1">
          <mxGeometry relative="1" as="geometry" />
        </mxCell>
        <mxCell id="MK2Ia5hPxLcxK8BkZ3UK-57" value="处理中Package列表" style="shape=partialRectangle;whiteSpace=wrap;html=1;left=0;right=0;fillColor=none;" parent="1" vertex="1">
          <mxGeometry x="2300" y="110" width="120" height="60" as="geometry" />
        </mxCell>
        <mxCell id="MK2Ia5hPxLcxK8BkZ3UK-62" value="更新后Package" style="rounded=0;orthogonalLoop=1;jettySize=auto;html=1;exitX=0.5;exitY=0;exitDx=0;exitDy=0;entryX=0.5;entryY=1;entryDx=0;entryDy=0;" parent="1" source="MK2Ia5hPxLcxK8BkZ3UK-60" target="MK2Ia5hPxLcxK8BkZ3UK-57" edge="1">
          <mxGeometry relative="1" as="geometry" />
        </mxCell>
        <mxCell id="MK2Ia5hPxLcxK8BkZ3UK-60" value="更新Package" style="ellipse;whiteSpace=wrap;html=1;" parent="1" vertex="1">
          <mxGeometry x="2310" y="230" width="120" height="80" as="geometry" />
        </mxCell>
        <mxCell id="MK2Ia5hPxLcxK8BkZ3UK-65" value="初始化的Package" style="rounded=0;orthogonalLoop=1;jettySize=auto;html=1;exitX=0;exitY=0;exitDx=0;exitDy=0;entryX=0.75;entryY=1;entryDx=0;entryDy=0;" parent="1" source="MK2Ia5hPxLcxK8BkZ3UK-63" target="MK2Ia5hPxLcxK8BkZ3UK-57" edge="1">
          <mxGeometry x="-0.2702" y="7" relative="1" as="geometry">
            <mxPoint as="offset" />
          </mxGeometry>
        </mxCell>
        <mxCell id="MK2Ia5hPxLcxK8BkZ3UK-63" value="创建Package" style="ellipse;whiteSpace=wrap;html=1;" parent="1" vertex="1">
          <mxGeometry x="2510" y="250" width="120" height="80" as="geometry" />
        </mxCell>
        <mxCell id="MK2Ia5hPxLcxK8BkZ3UK-70" style="rounded=0;orthogonalLoop=1;jettySize=auto;html=1;exitX=0;exitY=0.5;exitDx=0;exitDy=0;entryX=1;entryY=0.5;entryDx=0;entryDy=0;" parent="1" source="MK2Ia5hPxLcxK8BkZ3UK-66" target="MK2Ia5hPxLcxK8BkZ3UK-67" edge="1">
          <mxGeometry relative="1" as="geometry" />
        </mxCell>
        <mxCell id="MK2Ia5hPxLcxK8BkZ3UK-66" value="预加载Package列表" style="shape=partialRectangle;whiteSpace=wrap;html=1;left=0;right=0;fillColor=none;" parent="1" vertex="1">
          <mxGeometry x="2582" y="370" width="120" height="60" as="geometry" />
        </mxCell>
        <mxCell id="MK2Ia5hPxLcxK8BkZ3UK-71" value="预加载Package&lt;br&gt;Package请求" style="rounded=0;orthogonalLoop=1;jettySize=auto;html=1;exitX=0.5;exitY=0;exitDx=0;exitDy=0;entryX=1;entryY=1;entryDx=0;entryDy=0;" parent="1" source="MK2Ia5hPxLcxK8BkZ3UK-67" target="MK2Ia5hPxLcxK8BkZ3UK-60" edge="1">
          <mxGeometry relative="1" as="geometry" />
        </mxCell>
        <mxCell id="MK2Ia5hPxLcxK8BkZ3UK-67" value="查询预加载列表" style="ellipse;whiteSpace=wrap;html=1;" parent="1" vertex="1">
          <mxGeometry x="2420" y="360" width="120" height="80" as="geometry" />
        </mxCell>
        <mxCell id="MK2Ia5hPxLcxK8BkZ3UK-76" style="rounded=0;orthogonalLoop=1;jettySize=auto;html=1;exitX=1;exitY=0.5;exitDx=0;exitDy=0;entryX=0;entryY=0.5;entryDx=0;entryDy=0;" parent="1" source="MK2Ia5hPxLcxK8BkZ3UK-75" target="MK2Ia5hPxLcxK8BkZ3UK-41" edge="1">
          <mxGeometry relative="1" as="geometry" />
        </mxCell>
        <mxCell id="MK2Ia5hPxLcxK8BkZ3UK-75" value="PAK文件" style="shape=partialRectangle;whiteSpace=wrap;html=1;left=0;right=0;fillColor=none;" parent="1" vertex="1">
          <mxGeometry x="1830" y="110" width="120" height="60" as="geometry" />
        </mxCell>
        <mxCell id="poz9PI-lkl7GwEYPIu7D-19" value="取消预加载请求" style="rounded=0;orthogonalLoop=1;jettySize=auto;html=1;exitX=0;exitY=0;exitDx=70;exitDy=80;exitPerimeter=0;entryX=0;entryY=0.5;entryDx=0;entryDy=0;" parent="1" source="poz9PI-lkl7GwEYPIu7D-13" target="poz9PI-lkl7GwEYPIu7D-14" edge="1">
          <mxGeometry relative="1" as="geometry" />
        </mxCell>
        <mxCell id="poz9PI-lkl7GwEYPIu7D-13" value="应用层" style="shape=cube;whiteSpace=wrap;html=1;boundedLbl=1;backgroundOutline=1;darkOpacity=0.05;darkOpacity2=0.1;" parent="1" vertex="1">
          <mxGeometry x="1815" y="730" width="120" height="80" as="geometry" />
        </mxCell>
        <mxCell id="poz9PI-lkl7GwEYPIu7D-21" value="取消预加载请求" style="rounded=0;orthogonalLoop=1;jettySize=auto;html=1;exitX=1;exitY=0;exitDx=0;exitDy=0;" parent="1" source="poz9PI-lkl7GwEYPIu7D-14" target="poz9PI-lkl7GwEYPIu7D-20" edge="1">
          <mxGeometry relative="1" as="geometry" />
        </mxCell>
        <mxCell id="poz9PI-lkl7GwEYPIu7D-14" value="有效性检查" style="ellipse;whiteSpace=wrap;html=1;" parent="1" vertex="1">
          <mxGeometry x="1935" y="842" width="120" height="80" as="geometry" />
        </mxCell>
        <mxCell id="poz9PI-lkl7GwEYPIu7D-17" value="Package引用计数与依赖关系" style="shape=partialRectangle;whiteSpace=wrap;html=1;left=0;right=0;fillColor=none;" parent="1" vertex="1">
          <mxGeometry x="2296" y="24" width="120" height="60" as="geometry" />
        </mxCell>
        <mxCell id="poz9PI-lkl7GwEYPIu7D-22" value="取消完成信息" style="rounded=0;orthogonalLoop=1;jettySize=auto;html=1;exitX=0;exitY=0.5;exitDx=0;exitDy=0;" parent="1" source="poz9PI-lkl7GwEYPIu7D-20" target="poz9PI-lkl7GwEYPIu7D-13" edge="1">
          <mxGeometry relative="1" as="geometry" />
        </mxCell>
        <mxCell id="poz9PI-lkl7GwEYPIu7D-26" style="rounded=0;orthogonalLoop=1;jettySize=auto;html=1;exitX=1;exitY=1;exitDx=0;exitDy=0;" parent="1" source="poz9PI-lkl7GwEYPIu7D-20" target="poz9PI-lkl7GwEYPIu7D-25" edge="1">
          <mxGeometry relative="1" as="geometry" />
        </mxCell>
        <mxCell id="poz9PI-lkl7GwEYPIu7D-20" value="回调处理" style="ellipse;whiteSpace=wrap;html=1;" parent="1" vertex="1">
          <mxGeometry x="2062" y="730" width="120" height="80" as="geometry" />
        </mxCell>
        <mxCell id="poz9PI-lkl7GwEYPIu7D-28" style="rounded=0;orthogonalLoop=1;jettySize=auto;html=1;exitX=0.5;exitY=1;exitDx=0;exitDy=0;entryX=0;entryY=0;entryDx=0;entryDy=0;" parent="1" source="poz9PI-lkl7GwEYPIu7D-25" target="poz9PI-lkl7GwEYPIu7D-27" edge="1">
          <mxGeometry relative="1" as="geometry" />
        </mxCell>
        <mxCell id="poz9PI-lkl7GwEYPIu7D-25" value="取消预加载请求队列" style="shape=partialRectangle;whiteSpace=wrap;html=1;left=0;right=0;fillColor=none;" parent="1" vertex="1">
          <mxGeometry x="2165" y="858" width="120" height="60" as="geometry" />
        </mxCell>
        <mxCell id="poz9PI-lkl7GwEYPIu7D-30" style="rounded=0;orthogonalLoop=1;jettySize=auto;html=1;exitX=1;exitY=0;exitDx=0;exitDy=0;" parent="1" source="poz9PI-lkl7GwEYPIu7D-27" target="poz9PI-lkl7GwEYPIu7D-29" edge="1">
          <mxGeometry relative="1" as="geometry" />
        </mxCell>
        <mxCell id="poz9PI-lkl7GwEYPIu7D-27" value="加载线程处理取消请求" style="ellipse;whiteSpace=wrap;html=1;" parent="1" vertex="1">
          <mxGeometry x="2276" y="958" width="120" height="80" as="geometry" />
        </mxCell>
        <mxCell id="poz9PI-lkl7GwEYPIu7D-37" style="rounded=0;orthogonalLoop=1;jettySize=auto;html=1;exitX=0.5;exitY=0;exitDx=0;exitDy=0;" parent="1" source="poz9PI-lkl7GwEYPIu7D-29" target="poz9PI-lkl7GwEYPIu7D-36" edge="1">
          <mxGeometry relative="1" as="geometry" />
        </mxCell>
        <mxCell id="poz9PI-lkl7GwEYPIu7D-29" value="查询预加载列表" style="ellipse;whiteSpace=wrap;html=1;" parent="1" vertex="1">
          <mxGeometry x="2367" y="858" width="120" height="80" as="geometry" />
        </mxCell>
        <mxCell id="poz9PI-lkl7GwEYPIu7D-35" style="rounded=0;orthogonalLoop=1;jettySize=auto;html=1;exitX=0;exitY=0.5;exitDx=0;exitDy=0;entryX=1;entryY=0.5;entryDx=0;entryDy=0;" parent="1" source="poz9PI-lkl7GwEYPIu7D-33" target="poz9PI-lkl7GwEYPIu7D-29" edge="1">
          <mxGeometry relative="1" as="geometry" />
        </mxCell>
        <mxCell id="poz9PI-lkl7GwEYPIu7D-33" value="预加载Package列表" style="shape=partialRectangle;whiteSpace=wrap;html=1;left=0;right=0;fillColor=none;" parent="1" vertex="1">
          <mxGeometry x="2563" y="771" width="120" height="60" as="geometry" />
        </mxCell>
        <mxCell id="poz9PI-lkl7GwEYPIu7D-41" style="rounded=0;orthogonalLoop=1;jettySize=auto;html=1;exitX=1;exitY=0;exitDx=0;exitDy=0;" parent="1" source="poz9PI-lkl7GwEYPIu7D-36" target="poz9PI-lkl7GwEYPIu7D-40" edge="1">
          <mxGeometry relative="1" as="geometry" />
        </mxCell>
        <mxCell id="poz9PI-lkl7GwEYPIu7D-36" value="更新引用计数与依赖关系" style="ellipse;whiteSpace=wrap;html=1;" parent="1" vertex="1">
          <mxGeometry x="2364" y="713" width="120" height="80" as="geometry" />
        </mxCell>
        <mxCell id="poz9PI-lkl7GwEYPIu7D-39" style="rounded=0;orthogonalLoop=1;jettySize=auto;html=1;exitX=1;exitY=0.5;exitDx=0;exitDy=0;" parent="1" source="poz9PI-lkl7GwEYPIu7D-38" target="poz9PI-lkl7GwEYPIu7D-36" edge="1">
          <mxGeometry relative="1" as="geometry" />
        </mxCell>
        <mxCell id="poz9PI-lkl7GwEYPIu7D-38" value="Package引用计数与依赖关系" style="shape=partialRectangle;whiteSpace=wrap;html=1;left=0;right=0;fillColor=none;" parent="1" vertex="1">
          <mxGeometry x="2190" y="726" width="120" height="60" as="geometry" />
        </mxCell>
        <mxCell id="poz9PI-lkl7GwEYPIu7D-42" style="rounded=0;orthogonalLoop=1;jettySize=auto;html=1;exitX=1;exitY=0.5;exitDx=0;exitDy=0;entryX=0.5;entryY=0;entryDx=0;entryDy=0;" parent="1" source="poz9PI-lkl7GwEYPIu7D-40" target="poz9PI-lkl7GwEYPIu7D-33" edge="1">
          <mxGeometry relative="1" as="geometry" />
        </mxCell>
        <mxCell id="poz9PI-lkl7GwEYPIu7D-43" style="rounded=0;orthogonalLoop=1;jettySize=auto;html=1;exitX=0;exitY=0.5;exitDx=0;exitDy=0;entryX=0.5;entryY=0;entryDx=0;entryDy=0;" parent="1" source="poz9PI-lkl7GwEYPIu7D-40" target="poz9PI-lkl7GwEYPIu7D-20" edge="1">
          <mxGeometry relative="1" as="geometry" />
        </mxCell>
        <mxCell id="poz9PI-lkl7GwEYPIu7D-40" value="释放预加载Pacakge" style="ellipse;whiteSpace=wrap;html=1;" parent="1" vertex="1">
          <mxGeometry x="2376" y="603" width="120" height="80" as="geometry" />
        </mxCell>
        <mxCell id="mypdU1SL2h5hZnq9ZAHb-64" value="未创建" style="swimlane;fontStyle=4;align=center;verticalAlign=top;childLayout=stackLayout;horizontal=1;startSize=40;horizontalStack=0;resizeParent=1;resizeParentMax=0;resizeLast=0;collapsible=0;marginBottom=0;html=1;rounded=1;absoluteArcSize=1;arcSize=50;whiteSpace=wrap;" vertex="1" parent="1">
          <mxGeometry x="462" y="1440" width="140" height="72" as="geometry" />
        </mxCell>
        <mxCell id="mypdU1SL2h5hZnq9ZAHb-73" value="等待Package加载完成" style="swimlane;fontStyle=4;align=center;verticalAlign=top;childLayout=stackLayout;horizontal=1;startSize=40;horizontalStack=0;resizeParent=1;resizeParentMax=0;resizeLast=0;collapsible=0;marginBottom=0;html=1;rounded=1;absoluteArcSize=1;arcSize=50;whiteSpace=wrap;" vertex="1" parent="1">
          <mxGeometry x="303" y="1749" width="150" height="72" as="geometry" />
        </mxCell>
        <mxCell id="mypdU1SL2h5hZnq9ZAHb-74" value="do/过程发起依赖加载请求" style="fillColor=none;strokeColor=none;align=left;verticalAlign=middle;spacingLeft=5;whiteSpace=wrap;html=1;" vertex="1" parent="mypdU1SL2h5hZnq9ZAHb-73">
          <mxGeometry y="40" width="150" height="32" as="geometry" />
        </mxCell>
        <mxCell id="mypdU1SL2h5hZnq9ZAHb-79" value="加载完成" style="swimlane;fontStyle=4;align=center;verticalAlign=top;childLayout=stackLayout;horizontal=1;startSize=40;horizontalStack=0;resizeParent=1;resizeParentMax=0;resizeLast=0;collapsible=0;marginBottom=0;html=1;rounded=1;absoluteArcSize=1;arcSize=50;whiteSpace=wrap;" vertex="1" parent="1">
          <mxGeometry x="308" y="2018" width="140" height="72" as="geometry" />
        </mxCell>
        <mxCell id="mypdU1SL2h5hZnq9ZAHb-84" value="&lt;u&gt;收到加载请求&lt;br&gt;&lt;/u&gt;创建Package" style="edgeStyle=orthogonalEdgeStyle;rounded=0;orthogonalLoop=1;jettySize=auto;html=1;exitX=0;exitY=0.75;exitDx=0;exitDy=0;" edge="1" parent="1" source="mypdU1SL2h5hZnq9ZAHb-64" target="mypdU1SL2h5hZnq9ZAHb-73">
          <mxGeometry relative="1" as="geometry">
            <mxPoint x="418" y="1513.0000000000005" as="sourcePoint" />
            <mxPoint as="offset" />
          </mxGeometry>
        </mxCell>
        <mxCell id="mypdU1SL2h5hZnq9ZAHb-97" value="&lt;u&gt;取消预加载&lt;/u&gt;&lt;br&gt;释放预加载内容" style="edgeStyle=orthogonalEdgeStyle;rounded=0;orthogonalLoop=1;jettySize=auto;html=1;exitX=1;exitY=0.25;exitDx=0;exitDy=0;entryX=1;entryY=0.25;entryDx=0;entryDy=0;" edge="1" parent="1" source="mypdU1SL2h5hZnq9ZAHb-89" target="mypdU1SL2h5hZnq9ZAHb-64">
          <mxGeometry x="-0.1203" relative="1" as="geometry">
            <Array as="points">
              <mxPoint x="837" y="1764" />
              <mxPoint x="837" y="1459" />
              <mxPoint x="608" y="1459" />
              <mxPoint x="608" y="1458" />
            </Array>
            <mxPoint as="offset" />
          </mxGeometry>
        </mxCell>
        <mxCell id="mypdU1SL2h5hZnq9ZAHb-89" value="等待加载请求" style="swimlane;fontStyle=4;align=center;verticalAlign=top;childLayout=stackLayout;horizontal=1;startSize=40;horizontalStack=0;resizeParent=1;resizeParentMax=0;resizeLast=0;collapsible=0;marginBottom=0;html=1;rounded=1;absoluteArcSize=1;arcSize=50;whiteSpace=wrap;" vertex="1" parent="1">
          <mxGeometry x="596.5" y="1746" width="187" height="72" as="geometry" />
        </mxCell>
        <mxCell id="mypdU1SL2h5hZnq9ZAHb-91" value="完成Header加载" style="edgeStyle=orthogonalEdgeStyle;rounded=0;orthogonalLoop=1;jettySize=auto;html=1;exitX=0.5;exitY=1;exitDx=0;exitDy=0;entryX=0.5;entryY=0;entryDx=0;entryDy=0;" edge="1" parent="1" source="mypdU1SL2h5hZnq9ZAHb-101" target="mypdU1SL2h5hZnq9ZAHb-89">
          <mxGeometry relative="1" as="geometry">
            <Array as="points">
              <mxPoint x="690" y="1702" />
            </Array>
          </mxGeometry>
        </mxCell>
        <mxCell id="mypdU1SL2h5hZnq9ZAHb-92" value="&lt;u&gt;收到加载请求&lt;/u&gt;&lt;br&gt;完成剩余部分的加载" style="edgeStyle=orthogonalEdgeStyle;rounded=0;orthogonalLoop=1;jettySize=auto;html=1;exitX=0.5;exitY=1;exitDx=0;exitDy=0;entryX=0.5;entryY=0;entryDx=0;entryDy=0;" edge="1" parent="1" target="mypdU1SL2h5hZnq9ZAHb-103">
          <mxGeometry relative="1" as="geometry">
            <mxPoint x="689.9999999999998" y="1818.0000000000005" as="sourcePoint" />
          </mxGeometry>
        </mxCell>
        <mxCell id="mypdU1SL2h5hZnq9ZAHb-93" value="完成Package加载" style="edgeStyle=orthogonalEdgeStyle;rounded=0;orthogonalLoop=1;jettySize=auto;html=1;exitX=0.5;exitY=1;exitDx=0;exitDy=0;" edge="1" parent="1" source="mypdU1SL2h5hZnq9ZAHb-74" target="mypdU1SL2h5hZnq9ZAHb-79">
          <mxGeometry x="-0.21" y="-22" relative="1" as="geometry">
            <mxPoint x="416" y="1949" as="sourcePoint" />
            <mxPoint as="offset" />
          </mxGeometry>
        </mxCell>
        <mxCell id="mypdU1SL2h5hZnq9ZAHb-94" value="释放Package" style="edgeStyle=orthogonalEdgeStyle;rounded=0;orthogonalLoop=1;jettySize=auto;html=1;entryX=0;entryY=0.25;entryDx=0;entryDy=0;exitX=0;exitY=0.5;exitDx=0;exitDy=0;" edge="1" parent="1" source="mypdU1SL2h5hZnq9ZAHb-79" target="mypdU1SL2h5hZnq9ZAHb-64">
          <mxGeometry relative="1" as="geometry">
            <mxPoint x="268" y="2088" as="sourcePoint" />
            <Array as="points">
              <mxPoint x="308" y="2059" />
              <mxPoint x="272" y="2059" />
              <mxPoint x="272" y="1458" />
            </Array>
          </mxGeometry>
        </mxCell>
        <mxCell id="mypdU1SL2h5hZnq9ZAHb-96" value="释放Package" style="edgeStyle=orthogonalEdgeStyle;rounded=0;orthogonalLoop=1;jettySize=auto;html=1;exitX=1;exitY=0;exitDx=0;exitDy=0;entryX=1;entryY=0;entryDx=0;entryDy=0;" edge="1" parent="1">
          <mxGeometry relative="1" as="geometry">
            <mxPoint x="760" y="2054" as="sourcePoint" />
            <mxPoint x="783.5" y="1786" as="targetPoint" />
            <Array as="points">
              <mxPoint x="760" y="2056" />
              <mxPoint x="838" y="2056" />
              <mxPoint x="838" y="1786" />
            </Array>
          </mxGeometry>
        </mxCell>
        <mxCell id="mypdU1SL2h5hZnq9ZAHb-100" value="等待Header加载完成" style="swimlane;fontStyle=4;align=center;verticalAlign=top;childLayout=stackLayout;horizontal=1;startSize=40;horizontalStack=0;resizeParent=1;resizeParentMax=0;resizeLast=0;collapsible=0;marginBottom=0;html=1;rounded=1;absoluteArcSize=1;arcSize=50;whiteSpace=wrap;" vertex="1" parent="1">
          <mxGeometry x="598" y="1582" width="177" height="72" as="geometry" />
        </mxCell>
        <mxCell id="mypdU1SL2h5hZnq9ZAHb-101" value="do/过程发起依赖的预加载请求" style="fillColor=none;strokeColor=none;align=left;verticalAlign=middle;spacingLeft=5;whiteSpace=wrap;html=1;" vertex="1" parent="mypdU1SL2h5hZnq9ZAHb-100">
          <mxGeometry y="40" width="177" height="32" as="geometry" />
        </mxCell>
        <mxCell id="mypdU1SL2h5hZnq9ZAHb-102" value="&lt;u&gt;收到预加载请求&lt;/u&gt;&lt;br&gt;创建预加载Package" style="edgeStyle=orthogonalEdgeStyle;rounded=0;orthogonalLoop=1;jettySize=auto;html=1;exitX=1;exitY=0.75;exitDx=0;exitDy=0;" edge="1" parent="1" source="mypdU1SL2h5hZnq9ZAHb-64" target="mypdU1SL2h5hZnq9ZAHb-100">
          <mxGeometry relative="1" as="geometry">
            <mxPoint x="671" y="1495" as="sourcePoint" />
            <Array as="points">
              <mxPoint x="671" y="1494" />
              <mxPoint x="686" y="1495" />
            </Array>
          </mxGeometry>
        </mxCell>
        <mxCell id="mypdU1SL2h5hZnq9ZAHb-115" value="取消预加载请求" style="edgeStyle=orthogonalEdgeStyle;rounded=0;orthogonalLoop=1;jettySize=auto;html=1;exitX=0;exitY=0.25;exitDx=0;exitDy=0;entryX=1;entryY=0.5;entryDx=0;entryDy=0;" edge="1" parent="1" source="mypdU1SL2h5hZnq9ZAHb-103" target="mypdU1SL2h5hZnq9ZAHb-73">
          <mxGeometry x="-0.096" y="8" relative="1" as="geometry">
            <mxPoint as="offset" />
          </mxGeometry>
        </mxCell>
        <mxCell id="mypdU1SL2h5hZnq9ZAHb-103" value="等待Export加载完成" style="swimlane;fontStyle=4;align=center;verticalAlign=top;childLayout=stackLayout;horizontal=1;startSize=40;horizontalStack=0;resizeParent=1;resizeParentMax=0;resizeLast=0;collapsible=0;marginBottom=0;html=1;rounded=1;absoluteArcSize=1;arcSize=50;whiteSpace=wrap;" vertex="1" parent="1">
          <mxGeometry x="620" y="1880" width="140" height="72" as="geometry" />
        </mxCell>
        <mxCell id="mypdU1SL2h5hZnq9ZAHb-105" value="加载完成" style="swimlane;fontStyle=4;align=center;verticalAlign=top;childLayout=stackLayout;horizontal=1;startSize=40;horizontalStack=0;resizeParent=1;resizeParentMax=0;resizeLast=0;collapsible=0;marginBottom=0;html=1;rounded=1;absoluteArcSize=1;arcSize=50;whiteSpace=wrap;" vertex="1" parent="1">
          <mxGeometry x="620" y="2014" width="140" height="72" as="geometry" />
        </mxCell>
        <mxCell id="mypdU1SL2h5hZnq9ZAHb-107" style="edgeStyle=orthogonalEdgeStyle;rounded=0;orthogonalLoop=1;jettySize=auto;html=1;exitX=0.5;exitY=1;exitDx=0;exitDy=0;" edge="1" parent="1" target="mypdU1SL2h5hZnq9ZAHb-105">
          <mxGeometry relative="1" as="geometry">
            <mxPoint x="690.0000000000002" y="1952" as="sourcePoint" />
          </mxGeometry>
        </mxCell>
        <mxCell id="mypdU1SL2h5hZnq9ZAHb-108" value="完成Header加载前收到预加载请求" style="edgeStyle=orthogonalEdgeStyle;rounded=0;orthogonalLoop=1;jettySize=auto;html=1;exitX=0.75;exitY=0;exitDx=0;exitDy=0;entryX=0;entryY=0.5;entryDx=0;entryDy=0;" edge="1" parent="1" source="mypdU1SL2h5hZnq9ZAHb-73" target="mypdU1SL2h5hZnq9ZAHb-100">
          <mxGeometry x="0.3584" y="-48" relative="1" as="geometry">
            <Array as="points">
              <mxPoint x="449" y="1618" />
            </Array>
            <mxPoint as="offset" />
          </mxGeometry>
        </mxCell>
        <mxCell id="mypdU1SL2h5hZnq9ZAHb-112" value="" style="endArrow=none;html=1;rounded=0;exitX=1;exitY=0;exitDx=0;exitDy=0;" edge="1" parent="1" source="mypdU1SL2h5hZnq9ZAHb-101">
          <mxGeometry width="50" height="50" relative="1" as="geometry">
            <mxPoint x="921" y="1677" as="sourcePoint" />
            <mxPoint x="837" y="1622" as="targetPoint" />
          </mxGeometry>
        </mxCell>
        <mxCell id="mypdU1SL2h5hZnq9ZAHb-113" value="完成Header后收到预加载请求" style="edgeStyle=orthogonalEdgeStyle;rounded=0;orthogonalLoop=1;jettySize=auto;html=1;exitX=0.75;exitY=1;exitDx=0;exitDy=0;entryX=0;entryY=0.25;entryDx=0;entryDy=0;" edge="1" parent="1" source="mypdU1SL2h5hZnq9ZAHb-74">
          <mxGeometry x="0.2732" y="3" relative="1" as="geometry">
            <mxPoint x="620.0000000000002" y="1928" as="targetPoint" />
            <Array as="points">
              <mxPoint x="416" y="1858" />
              <mxPoint x="416" y="1928" />
            </Array>
            <mxPoint as="offset" />
          </mxGeometry>
        </mxCell>
        <mxCell id="mypdU1SL2h5hZnq9ZAHb-114" value="预加载请求" style="edgeStyle=orthogonalEdgeStyle;rounded=0;orthogonalLoop=1;jettySize=auto;html=1;exitX=1;exitY=0.5;exitDx=0;exitDy=0;entryX=0;entryY=0;entryDx=0;entryDy=0;" edge="1" parent="1" source="mypdU1SL2h5hZnq9ZAHb-79">
          <mxGeometry relative="1" as="geometry">
            <mxPoint x="486" y="2056" as="sourcePoint" />
            <mxPoint x="620.0000000000002" y="2054" as="targetPoint" />
            <Array as="points" />
          </mxGeometry>
        </mxCell>
      </root>
    </mxGraphModel>
  </diagram>
</mxfile>
